# xmcd
#
# Track frame offsets:
# 150
# 20257
# 33260
# 57426
# 73068
# 96441
# 115703
# 137334
# 163067
# 179853
# 203185
# 217976
# 233557
# 255246
# 272212
# 291407
# 304739
# 322634
# 333313
#
# Disc length: 4721 seconds
#
# Revision: 0
# Processed by: cddbd v1.5.2PL0 Copyright (c) Steve Scherf et al.
# Submitted via: Audion 3.0.2 (http://www.panic.com/audion/)
#
DISCID=11126f13
DTITLE=Mikhail Krug - Zvezdnij Hit
DYEAR=1900
DGENRE=
TTITLE0=Vladimirskij tsentral
TTITLE1=Den' kak den'
TTITLE2=Ispoved'
TTITLE3=Svoboda
TTITLE4=Zolotie kupola
TTITLE5=Pis'mo mame
TTITLE6=Kol'schik
TTITLE7=Prokuroru zelenomu - slava!
TTITLE8=Studentka
TTITLE9=Kresty
TTITLE10=Nishtiak, bratok!
TTITLE11=Myshka
TTITLE12=Roza
TTITLE13=Prikhodi b moj dom
TTITLE14=Madam
TTITLE15=Zhigan-limon
TTITLE16=Khaim
TTITLE17=Dobrovo puti
TTITLE18=Posviaschenie
EXTD=
EXTT0=
EXTT1=
EXTT2=
EXTT3=
EXTT4=
EXTT5=
EXTT6=
EXTT7=
EXTT8=
EXTT9=
EXTT10=
EXTT11=
EXTT12=
EXTT13=
EXTT14=
EXTT15=
EXTT16=
EXTT17=
EXTT18=
PLAYORDER=
